HIERARCHY
ROOT root
{
	OFFSET 0.000000 0.000000 0.000000
	CHANNELS 6 Xposition Yposition Zposition Zrotation Yrotation Xrotation
	JOINT lhip
	{
		OFFSET 0.058581 -0.082280 -0.017664
		CHANNELS 3 Zrotation Yrotation Xrotation
		JOINT lknee
		{
			OFFSET 0.043451 -0.386469 0.008037
			CHANNELS 3 Zrotation Yrotation Xrotation
			JOINT lankle
			{
				OFFSET -0.014790 -0.426874 -0.037428
				CHANNELS 3 Zrotation Yrotation Xrotation
				JOINT ltoe
				{
					OFFSET 0.041054 -0.060286 0.122042
					CHANNELS 3 Zrotation Yrotation Xrotation
					End Site
					{
						OFFSET 0.000000 0.000000 0.000000
					}
				}
			}
		}
	}
	JOINT rhip
	{
		OFFSET -0.060310 -0.090513 -0.013543
		CHANNELS 3 Zrotation Yrotation Xrotation
		JOINT rknee
		{
			OFFSET -0.043257 -0.383688 -0.004843
			CHANNELS 3 Zrotation Yrotation Xrotation
			JOINT rankle
			{
				OFFSET 0.019056 -0.420046 -0.034562
				CHANNELS 3 Zrotation Yrotation Xrotation
				JOINT rtoe
				{
					OFFSET -0.034840 -0.062106 0.130323
					CHANNELS 3 Zrotation Yrotation Xrotation
					End Site
					{
						OFFSET 0.000000 0.000000 0.000000
					}
				}
			}
		}
	}
	JOINT lowerback
	{
		OFFSET 0.004439 0.124404 -0.038385
		CHANNELS 3 Zrotation Yrotation Xrotation
		JOINT upperback
		{
			OFFSET 0.004488 0.137956 0.026820
			CHANNELS 3 Zrotation Yrotation Xrotation
			JOINT chest
			{
				OFFSET -0.002265 0.056032 0.002855
				CHANNELS 3 Zrotation Yrotation Xrotation
				JOINT lowerneck
				{
					OFFSET -0.013390 0.211636 -0.033468
					CHANNELS 3 Zrotation Yrotation Xrotation
					JOINT upperneck
					{
						OFFSET 0.010113 0.088937 0.050410
						CHANNELS 3 Zrotation Yrotation Xrotation
						End Site
						{
							OFFSET 0.000000 0.000000 0.000000
						}
					}
				}
				JOINT lclavicle
				{
					OFFSET 0.071702 0.114000 -0.018898
					CHANNELS 3 Zrotation Yrotation Xrotation
					JOINT lshoulder
					{
						OFFSET 0.122921 0.045205 -0.019046
						CHANNELS 3 Zrotation Yrotation Xrotation
						JOINT lelbow
						{
							OFFSET 0.255332 -0.015649 -0.022946
							CHANNELS 3 Zrotation Yrotation Xrotation
							JOINT lwrist
							{
								OFFSET 0.265709 0.012698 -0.007375
								CHANNELS 3 Zrotation Yrotation Xrotation
								End Site
								{
									OFFSET 0.000000 0.000000 0.000000
								}
							}
						}
					}
				}
				JOINT rclavicle
				{
					OFFSET -0.082954 0.112472 -0.023707
					CHANNELS 3 Zrotation Yrotation Xrotation
					JOINT rshoulder
					{
						OFFSET -0.113228 0.046853 -0.008472
						CHANNELS 3 Zrotation Yrotation Xrotation
						JOINT relbow
						{
							OFFSET -0.260127 -0.014369 -0.031269
							CHANNELS 3 Zrotation Yrotation Xrotation
							JOINT rwrist
							{
								OFFSET -0.269108 0.006794 -0.006027
								CHANNELS 3 Zrotation Yrotation Xrotation
								End Site
								{
									OFFSET 0.000000 0.000000 0.000000
								}
							}
						}
					}
				}
			}
		}
	}
}
MOTION
Frames: 8
Frame Time: 0.033333
0.055510 0.496628 1.009181 -3.791094 -0.409349 86.465319 3.034050 -0.346197 -6.944221 -2.431995 -2.813724 20.729535 -1.343787 5.780311 -15.482946 0.000000 -0.000000 0.000000 -9.173570 -5.975043 2.058976 -5.237205 -5.496227 6.370185 5.771310 -6.098388 -9.185071 0.000000 -0.000000 0.000000 -1.837738 6.711059 12.257618 -2.450456 -4.477689 5.901127 1.592087 2.352716 -1.330493 1.056011 9.834559 -13.084171 6.773587 6.541599 -9.822181 -3.165857 -41.104555 -12.025783 -23.586270 -34.020436 -1.671589 82.524189 -57.509918 -54.400339 28.247222 -6.723871 9.032223 5.012635 48.752374 -3.528918 43.885931 53.044863 4.656113 -69.371549 51.295486 -66.382570 -15.205299 -9.720343 -46.857977 
0.067381 0.489818 1.009703 -4.520590 -0.270373 86.499138 2.364173 -0.321078 -6.217527 -2.503851 -2.346539 20.206591 -0.503190 6.065887 -15.868244 0.000000 -0.000000 0.000000 -9.854700 -6.173724 1.638824 -5.290769 -5.915447 7.187607 6.101745 -5.481392 -8.271258 0.000000 -0.000000 0.000000 -1.798179 6.469493 12.351520 -2.871615 -4.124399 5.756595 1.316591 2.542835 -1.453970 1.490816 9.722999 -13.006888 7.233843 6.779639 -9.081379 -5.020034 -39.629636 -10.840909 -25.570593 -33.224139 -0.703934 86.821716 -58.453151 -58.768774 26.372083 -5.468511 7.102098 6.730821 47.816279 -1.954083 46.233458 52.613587 6.311004 -68.782327 52.229133 -64.961920 -15.472345 -9.637355 -44.553137 
0.077607 0.483998 1.010498 -4.731846 0.088894 86.609288 1.954090 -0.518401 -5.897431 -2.577111 -2.265068 20.038294 0.194263 6.638808 -16.001108 0.000000 -0.000000 0.000000 -10.133553 -6.576351 1.201984 -5.228050 -6.460976 8.091737 6.075346 -5.735480 -7.211711 0.000000 -0.000000 0.000000 -1.809101 6.455213 11.930406 -2.968614 -3.745174 6.194321 1.235226 2.726059 -1.121531 1.644330 9.250851 -13.185363 7.584001 6.348112 -8.872009 -6.359766 -38.120901 -9.910832 -26.937044 -32.318004 0.428160 90.209429 -59.932594 -62.045987 26.569427 -5.201173 6.281713 8.105899 46.398941 -0.786444 47.043596 50.789749 7.400034 -68.085438 54.243457 -63.439733 -17.379883 -9.571313 -42.106242 
0.085196 0.479209 1.012266 -5.008713 0.556614 85.924277 2.009118 0.653540 -4.606970 -5.339207 -7.720925 19.643422 1.993748 12.622933 -15.665363 0.000000 -0.000000 0.000000 -9.763901 -6.010017 1.917867 -4.505398 -2.799861 7.977460 5.554853 -11.559628 -6.571708 0.000000 -0.000000 0.000000 -2.192492 7.202069 13.131807 -2.236573 -3.615017 5.539638 1.202821 2.546921 -0.778456 1.043873 5.368848 -13.957785 9.117977 9.166506 -7.082499 -10.945055 -33.695932 -1.323680 -22.284662 -35.307927 -6.184014 95.262834 -64.084943 -68.823151 22.052704 -2.877470 4.742337 10.734016 43.964490 4.357033 44.001512 51.455966 4.613716 -65.091619 57.279992 -61.939391 -19.209632 -6.712672 -39.015344 
0.092246 0.474310 1.013440 -4.849253 0.895315 85.808313 1.797849 0.517328 -4.143313 -5.551120 -8.329995 19.549505 2.511155 13.315397 -15.497591 0.000000 -0.000000 0.000000 -9.775838 -6.232254 1.818539 -4.400758 -3.052468 8.925878 5.334740 -12.716388 -5.616245 0.000000 -0.000000 0.000000 -2.472290 7.148205 12.957490 -2.104523 -3.398297 6.165595 1.077996 2.700515 -0.641613 1.074803 4.610796 -14.113025 9.379652 9.358285 -7.286054 -12.771021 -31.134251 0.432736 -21.726726 -33.378252 -6.091147 99.063499 -66.022015 -75.726334 22.183461 -2.748392 1.369836 12.409303 42.252453 5.819774 44.228578 50.015144 5.577743 -63.131654 59.077637 -60.320171 -20.583610 -5.953715 -36.050850 
0.098184 0.469474 1.014142 -4.855605 1.200125 86.038869 1.591473 0.062298 -3.775968 -5.324951 -8.310132 19.002714 2.837709 13.461190 -15.464607 0.000000 -0.000000 0.000000 -9.734190 -6.391124 1.137544 -4.365789 -3.848140 10.294044 5.213847 -13.018297 -5.237033 0.000000 -0.000000 0.000000 -2.599954 7.071042 12.699503 -2.254590 -2.866638 6.148995 0.794581 2.968210 -0.487681 1.714077 4.227868 -14.007390 9.414943 8.616007 -7.397768 -13.606287 -28.160651 0.806537 -22.903721 -31.219567 -4.856932 102.611042 -67.134560 -80.674814 19.701597 -2.346115 -0.111422 14.161101 40.441775 7.157206 44.578100 48.739314 6.387194 -59.888351 60.571987 -55.908416 -19.894908 -3.791980 -31.837400 
0.103055 0.465265 1.014409 -4.690591 1.559545 86.306523 1.521159 -0.371930 -3.446088 -5.089424 -8.309917 18.334857 3.194941 13.559500 -15.488410 0.000000 -0.000000 0.000000 -9.505214 -6.524224 0.096733 -4.259848 -4.672953 12.184135 4.692588 -13.524929 -5.414692 0.000000 -0.000000 0.000000 -2.685852 6.847397 12.305578 -2.463353 -2.307341 6.282168 0.554022 3.441434 -0.476138 2.471518 3.572651 -13.785255 9.613134 7.651851 -7.251414 -14.050520 -25.490028 0.760430 -23.773825 -28.992123 -3.656689 105.041496 -67.985408 -85.104142 17.107929 -1.840224 -1.916504 15.074332 39.008027 8.020466 44.088288 47.340508 6.740013 -55.616856 62.011498 -50.962016 -17.512839 -0.975990 -27.348727 
0.106644 0.462174 1.014710 -4.288466 1.962095 86.187294 1.521310 -0.743226 -2.936794 -4.889352 -8.870675 18.000465 3.353135 13.737285 -15.409283 0.000000 -0.000000 0.000000 -8.876439 -6.367723 -0.777716 -4.171558 -4.888632 14.713405 3.763660 -14.165012 -6.769396 0.000000 -0.000000 0.000000 -2.659206 6.753139 12.255544 -2.617594 -1.716153 6.298639 0.501273 3.825064 0.026176 2.740770 2.659954 -13.677491 9.930667 6.717827 -7.405953 -14.253792 -23.564064 0.712080 -23.925867 -26.505673 -3.047445 106.793885 -68.795473 -89.805763 14.872364 -1.682187 -6.136804 15.012757 38.148779 8.182154 43.189404 46.092590 6.859258 -50.998549 63.628754 -45.489022 -16.105747 0.947141 -23.241969 
